<?xml version="1.0" encoding="utf-8" ?>
<svg xmlns="http://www.w3.org/2000/svg" xmlns:xlink="http://www.w3.org/1999/xlink" width="2018" height="2018">
	<path transform="matrix(1.97027 0 0 -1.97027 0 2017.56)" d="M444.247 529.251L496.579 529.047L496.524 752.041L323.75 752.081L271.483 752.344C273.14 731.439 271.934 709.284 271.914 688.248C271.905 678.712 272.204 669.325 273.683 659.878C278.609 628.409 294.775 598.487 317.263 576.033C343.932 549.402 379.008 533.731 416.391 530.034C425.652 529.118 434.954 529.254 444.247 529.251ZM439.248 638.722Q440.02 638.635 440.788 638.522Q441.557 638.409 442.321 638.271Q443.086 638.133 443.845 637.97Q444.605 637.806 445.358 637.618Q446.112 637.43 446.859 637.217Q447.606 637.004 448.346 636.767Q449.085 636.53 449.817 636.268Q450.548 636.006 451.271 635.721Q451.993 635.435 452.706 635.126Q453.418 634.816 454.12 634.484Q454.822 634.151 455.513 633.795Q456.203 633.44 456.882 633.062Q457.56 632.684 458.226 632.283Q458.892 631.883 459.544 631.461Q460.196 631.039 460.834 630.595Q461.472 630.152 462.095 629.688Q462.717 629.224 463.325 628.74Q463.932 628.255 464.523 627.751Q465.114 627.247 465.688 626.723Q466.262 626.2 466.818 625.658Q467.375 625.116 467.913 624.556Q468.451 623.996 468.971 623.418Q469.49 622.841 469.991 622.247Q470.491 621.652 470.971 621.042Q471.451 620.431 471.911 619.805Q472.371 619.179 472.81 618.538Q473.249 617.898 473.667 617.243Q474.085 616.588 474.481 615.919Q474.876 615.251 475.25 614.57Q475.624 613.889 475.975 613.196Q476.326 612.503 476.654 611.799Q476.982 611.095 477.286 610.38Q477.591 609.665 477.871 608.941Q478.152 608.217 478.409 607.484Q478.666 606.751 478.898 606.01Q479.13 605.268 479.338 604.52Q479.546 603.771 479.729 603.017Q479.912 602.262 480.07 601.501Q480.229 600.741 480.362 599.975Q480.494 599.21 480.602 598.441Q480.71 597.672 480.792 596.899Q480.874 596.127 480.931 595.352Q480.988 594.577 481.019 593.801Q481.05 593.025 481.055 592.248Q481.061 591.471 481.041 590.695Q481.021 589.918 480.975 589.143Q480.929 588.368 480.858 587.594Q480.787 586.82 480.69 586.05Q480.594 585.279 480.471 584.512Q480.349 583.745 480.202 582.982Q480.055 582.219 479.883 581.462Q479.71 580.705 479.513 579.953Q479.316 579.202 479.094 578.458Q478.872 577.713 478.626 576.976Q478.38 576.24 478.109 575.511Q477.839 574.783 477.544 574.064Q477.25 573.346 476.932 572.637Q476.614 571.928 476.273 571.23Q475.932 570.532 475.568 569.846Q475.204 569.16 474.818 568.486Q474.432 567.812 474.024 567.151Q473.615 566.49 473.185 565.843Q472.755 565.196 472.305 564.564Q471.854 563.931 471.382 563.314Q470.91 562.697 470.419 562.095Q469.927 561.494 469.416 560.909Q468.905 560.324 468.374 559.757Q467.844 559.189 467.295 558.639Q466.747 558.089 466.18 557.558Q465.614 557.026 465.03 556.514Q464.446 556.001 463.846 555.508Q463.246 555.015 462.63 554.542Q462.013 554.069 461.382 553.617Q460.75 553.165 460.104 552.733Q459.458 552.302 458.798 551.892Q458.139 551.483 457.465 551.095Q456.792 550.707 456.107 550.342Q455.421 549.976 454.724 549.634Q454.027 549.291 453.319 548.972Q452.611 548.652 451.893 548.356Q451.174 548.06 450.447 547.788Q449.719 547.516 448.983 547.268Q448.247 547.021 447.503 546.797Q446.759 546.574 446.008 546.375Q445.257 546.176 444.5 546.002Q443.743 545.828 442.981 545.679Q442.219 545.53 441.452 545.406Q440.685 545.282 439.914 545.184Q439.144 545.086 438.37 545.013Q437.597 544.94 436.822 544.892Q436.046 544.845 435.27 544.823Q434.493 544.802 433.717 544.805Q432.94 544.809 432.164 544.839Q431.387 544.868 430.613 544.923Q429.838 544.978 429.065 545.059Q428.293 545.139 427.523 545.245Q426.386 545.401 425.258 545.613Q424.13 545.825 423.014 546.091Q421.898 546.358 420.796 546.678Q419.694 546.998 418.609 547.372Q417.524 547.746 416.458 548.172Q415.393 548.598 414.349 549.075Q413.306 549.553 412.287 550.08Q411.268 550.608 410.275 551.185Q409.283 551.761 408.32 552.386Q407.358 553.01 406.426 553.681Q405.495 554.351 404.597 555.066Q403.7 555.781 402.838 556.539Q401.976 557.297 401.152 558.096Q400.328 558.895 399.545 559.733Q398.761 560.571 398.018 561.446Q397.276 562.321 396.578 563.232Q395.879 564.142 395.225 565.085Q394.572 566.029 393.965 567.003Q393.358 567.977 392.799 568.979Q392.241 569.981 391.731 571.01Q391.222 572.038 390.764 573.09Q390.305 574.142 389.898 575.215Q389.492 576.288 389.138 577.38Q388.784 578.472 388.483 579.579Q388.183 580.687 387.936 581.807Q387.69 582.928 387.499 584.06Q387.308 585.191 387.172 586.331Q387.036 587.47 386.955 588.615Q386.875 589.76 386.85 590.907Q386.826 592.055 386.857 593.202Q386.889 594.349 386.976 595.493Q387.063 596.637 387.206 597.776Q387.349 598.915 387.547 600.045Q387.745 601.175 387.998 602.295Q388.251 603.414 388.558 604.52Q388.865 605.626 389.226 606.715Q389.586 607.804 389.999 608.875Q390.413 609.946 390.878 610.995Q391.342 612.044 391.858 613.069Q392.373 614.095 392.938 615.094Q393.503 616.093 394.115 617.063Q394.728 618.033 395.387 618.973Q396.046 619.912 396.75 620.818Q397.455 621.724 398.202 622.595Q398.949 623.466 399.738 624.299Q400.527 625.133 401.356 625.927Q402.185 626.721 403.051 627.473Q403.917 628.226 404.819 628.936Q405.721 629.645 406.656 630.31Q407.592 630.975 408.558 631.593Q409.525 632.212 410.52 632.783Q411.516 633.353 412.538 633.875Q413.56 634.396 414.607 634.867Q415.653 635.339 416.721 635.758Q417.789 636.178 418.877 636.545Q419.964 636.912 421.068 637.226Q422.172 637.54 423.289 637.799Q424.407 638.059 425.536 638.264Q426.666 638.469 427.803 638.619Q428.941 638.768 430.085 638.862Q431.229 638.957 432.375 638.995Q433.522 639.033 434.67 639.016Q435.817 638.998 436.962 638.924Q438.108 638.851 439.248 638.722ZM273.154 749.365C276.961 746.311 280.524 742.996 284.293 739.911C302.304 723.838 321.762 709.241 340.446 693.95L365.302 673.726C371.796 668.432 378.365 662.562 385.598 658.324C397.697 651.234 410.512 646.64 424.05 643.205C416.937 643.345 409.669 642.801 402.599 643.228C365.49 644.77 331.347 655.257 305.41 683.358C292.963 696.843 283.868 713.527 278.36 731C276.452 737.053 275.271 743.403 273.154 749.365Z"/>
	<path transform="matrix(1.97027 0 0 -1.97027 0 2017.56)" d="M527.548 271.925C564.763 271.249 602.11 271.957 639.339 271.975C677.006 271.993 714.785 271.329 752.434 272.137C727.348 291.293 702.784 313.204 678.693 333.718C665.522 344.933 652.461 357.382 637.511 366.214Q633.55 368.53 629.391 370.471Q625.233 372.412 620.913 373.96Q616.593 375.509 612.149 376.652Q607.705 377.795 603.174 378.523C625.768 382.304 650.003 380.617 671.358 372.084C706.15 358.182 729.972 330.281 744.506 296.524C747.344 288.656 750.003 280.744 752.989 272.926C751.343 286.823 752.75 306.794 752.801 321.272C752.841 332.616 752.661 344.115 751.183 355.376Q750.964 357.048 750.711 358.715Q750.458 360.383 750.171 362.044Q749.883 363.706 749.562 365.361Q749.24 367.017 748.884 368.665Q748.529 370.314 748.139 371.954Q747.75 373.595 747.326 375.228Q746.903 376.86 746.446 378.483Q745.989 380.107 745.499 381.72Q745.009 383.334 744.485 384.937Q743.962 386.54 743.406 388.132Q742.849 389.724 742.26 391.304Q741.671 392.884 741.05 394.452Q740.428 396.019 739.775 397.574Q739.121 399.128 738.435 400.669Q737.75 402.21 737.033 403.736Q736.315 405.262 735.567 406.773Q734.818 408.284 734.039 409.78Q733.259 411.275 732.449 412.754Q731.639 414.233 730.798 415.695Q729.958 417.157 729.088 418.602Q728.217 420.046 727.317 421.472Q726.417 422.898 725.488 424.305Q724.559 425.712 723.601 427.1Q722.642 428.488 721.656 429.856Q720.67 431.224 719.655 432.571Q718.641 433.918 717.599 435.244Q716.557 436.57 715.487 437.874Q714.418 439.178 713.323 440.46Q712.227 441.741 711.105 443Q709.983 444.259 708.835 445.495Q707.688 446.731 706.515 447.942Q705.342 449.154 704.144 450.341C653.339 501.101 593.529 496.008 527.604 496.011C528.311 489.384 527.913 482.32 527.915 475.652L527.918 439.665L527.901 330.749C527.804 311.202 526.685 291.451 527.548 271.925ZM596.754 480.105Q597.932 479.948 599.101 479.734Q600.271 479.52 601.428 479.248Q602.585 478.976 603.727 478.648Q604.87 478.32 605.995 477.937Q607.12 477.553 608.224 477.115Q609.329 476.676 610.411 476.184Q611.493 475.692 612.549 475.147Q613.606 474.602 614.634 474.006Q615.663 473.41 616.661 472.765Q617.659 472.119 618.624 471.425Q619.589 470.731 620.518 469.991Q621.448 469.25 622.34 468.465Q623.233 467.68 624.086 466.852Q624.938 466.024 625.749 465.155Q626.56 464.286 627.328 463.378Q628.095 462.471 628.817 461.526Q629.539 460.582 630.213 459.603Q630.888 458.625 631.514 457.614Q632.139 456.604 632.715 455.564Q633.29 454.524 633.814 453.457Q634.338 452.39 634.808 451.298Q635.279 450.207 635.695 449.094Q636.112 447.98 636.473 446.848Q636.835 445.716 637.14 444.567Q637.445 443.418 637.694 442.256Q637.942 441.094 638.133 439.92Q638.325 438.747 638.458 437.566Q638.591 436.385 638.666 435.199Q638.742 434.013 638.758 432.824Q638.775 431.636 638.734 430.448Q638.692 429.26 638.593 428.076Q638.493 426.891 638.335 425.713Q638.177 424.535 637.962 423.366Q637.746 422.197 637.474 421.04Q637.201 419.883 636.872 418.741Q636.543 417.599 636.158 416.474Q635.774 415.35 635.334 414.245Q634.895 413.141 634.402 412.06Q633.908 410.978 633.363 409.922Q632.817 408.866 632.22 407.838Q631.623 406.81 630.977 405.813Q630.33 404.816 629.635 403.851Q628.941 402.887 628.199 401.958Q627.458 401.029 626.672 400.137Q625.886 399.246 625.057 398.394Q624.229 397.542 623.359 396.732Q622.489 395.921 621.581 395.155Q620.672 394.388 619.727 393.667Q618.783 392.946 617.803 392.272Q616.824 391.599 615.813 390.974Q614.802 390.349 613.762 389.774Q612.721 389.2 611.653 388.677Q610.586 388.155 609.494 387.685Q608.402 387.215 607.289 386.8Q606.175 386.384 605.042 386.024Q603.91 385.664 602.761 385.359Q601.612 385.055 600.449 384.808Q599.287 384.56 598.113 384.37Q596.94 384.18 595.759 384.048Q594.578 383.915 593.391 383.841Q592.205 383.767 591.017 383.751Q589.828 383.735 588.64 383.778Q587.453 383.821 586.268 383.921Q585.084 384.022 583.906 384.181Q582.729 384.34 581.562 384.556Q580.395 384.772 579.239 385.045Q578.084 385.318 576.943 385.648Q575.803 385.977 574.68 386.362Q573.557 386.747 572.454 387.187Q571.351 387.627 570.271 388.12Q569.191 388.613 568.137 389.159Q567.082 389.704 566.056 390.301Q565.029 390.897 564.033 391.544Q563.037 392.19 562.074 392.884Q561.111 393.578 560.183 394.319Q559.256 395.06 558.365 395.845Q557.475 396.63 556.624 397.458Q555.773 398.287 554.964 399.155Q554.155 400.024 553.389 400.931Q552.623 401.839 551.903 402.783Q551.183 403.726 550.51 404.704Q549.837 405.682 549.213 406.692Q548.588 407.702 548.014 408.741Q547.44 409.781 546.918 410.847Q546.396 411.913 545.926 413.003Q545.457 414.094 545.041 415.206Q544.626 416.318 544.266 417.45Q543.905 418.581 543.601 419.728Q543.296 420.876 543.049 422.037Q542.801 423.198 542.61 424.37Q542.42 425.542 542.287 426.721Q542.154 427.901 542.079 429.086Q542.004 430.271 541.988 431.458Q541.971 432.645 542.012 433.832Q542.054 435.018 542.154 436.201Q542.253 437.384 542.411 438.561Q542.569 439.738 542.784 440.905Q542.999 442.073 543.271 443.229Q543.543 444.384 543.872 445.525Q544.2 446.666 544.584 447.789Q544.968 448.913 545.407 450.016Q545.845 451.119 546.338 452.2Q546.83 453.28 547.375 454.335Q547.919 455.39 548.515 456.417Q549.11 457.444 549.756 458.441Q550.401 459.437 551.095 460.401Q551.788 461.364 552.528 462.293Q553.268 463.221 554.052 464.113Q554.837 465.004 555.664 465.855Q556.491 466.707 557.359 467.517Q558.227 468.327 559.134 469.093Q560.041 469.86 560.984 470.581Q561.927 471.302 562.905 471.976Q563.882 472.65 564.891 473.275Q565.901 473.9 566.939 474.475Q567.978 475.05 569.044 475.573Q570.109 476.097 571.2 476.567Q572.29 477.037 573.401 477.454Q574.513 477.87 575.644 478.232Q576.775 478.593 577.922 478.898Q579.07 479.204 580.23 479.453Q581.391 479.702 582.563 479.893Q583.735 480.085 584.914 480.219Q586.094 480.353 587.279 480.429Q588.464 480.505 589.651 480.522Q590.838 480.54 592.024 480.499Q593.211 480.459 594.394 480.36Q595.577 480.262 596.754 480.105Z"/>
	<path transform="matrix(1.97027 0 0 -1.97027 0 2017.56)" d="M273.035 296.252C276.287 302.449 277.92 310.471 280.861 317.074C292.934 344.18 318.624 365.361 346.128 375.723C357.095 379.855 369.602 383.086 381.362 383.46C397.266 383.966 418.423 378.44 432.734 371.887C468.699 355.418 484.102 331.576 497.256 296.016C495.549 306.945 496.547 319.019 496.561 330.077L496.593 391.795L496.468 442.648C496.427 451.844 495.627 461.986 496.863 471.069L496.935 471.571L496.428 471.325C491.327 458.638 487.493 446.452 479.79 434.861C462.211 408.41 433.637 392.722 403.019 386.667C396.023 385.283 388.879 384.326 381.734 384.498C360.643 385.005 337.773 393.626 320.454 405.296C297.208 420.961 278.575 446.3 273.126 474.06C272.087 443.402 273.012 412.447 272.923 381.76C272.842 353.309 271.643 324.673 273.035 296.252Z"/>
	<path transform="matrix(1.97027 0 0 -1.97027 0 2017.56)" d="M752.253 547.341C753.282 551.74 752.561 557.779 752.514 562.373L752.216 591.906C752.113 622.707 752.893 653.508 752.951 684.299C752.982 700.499 751.728 716.774 752.58 732.971C744.156 706.772 734.827 686.809 713.784 668.116C693.786 651.854 673.542 645.447 648.888 639.875C667.268 636.612 684.987 630.312 700.894 620.45C727.637 603.869 745.061 577.717 752.253 547.341Z"/>
	<path transform="matrix(1.97027 0 0 -1.97027 0 2017.56)" d="M639.614 649.782C641.689 653.694 642.474 659.96 643.585 664.352C646.149 674.488 649.165 684.314 654.135 693.57C664.994 713.793 682.917 732.259 703.768 742.25C713.254 746.795 722.959 749.628 732.96 752.68C723.436 752.148 713.794 752.568 704.251 752.462Q670.69 751.99 637.125 752.063L577.32 752.117C565.386 752.2 553.453 752.921 541.521 752.204C556.844 749.124 570.994 744.708 584.484 736.626C618.485 716.258 630.585 686.354 639.614 649.782Z"/>
	<path transform="matrix(1.97027 0 0 -1.97027 0 2017.56)" d="M295.655 272.193C301.805 271.242 308.811 271.807 315.04 271.83L348.819 271.921L477.617 271.97C449.765 279.234 427.035 291.49 409.349 314.785C394.375 336.017 387.492 357.884 383.736 383.252C381.508 363.655 377.976 346.143 368.368 328.547C352.545 299.569 327 281.304 295.655 272.193Z"/>
	<path transform="matrix(1.97027 0 0 -1.97027 0 2017.56)" d="M527.522 549.823C529.652 553.308 530.666 558.886 532.013 562.849C535.236 572.326 539.281 581.24 544.945 589.53C565.42 619.496 595.298 633.136 629.868 639.781C606.385 643.978 585.825 652.117 566.743 666.59C546.402 682.419 534.932 704.809 527.331 728.834Q528.678 639.33 527.522 549.823Z"/>
	<path transform="matrix(1.97027 0 0 -1.97027 0 2017.56)" d="M383.629 388.265C384.877 389.372 389.22 412.104 390.312 415.881Q391.968 421.592 394.2 427.104Q396.432 432.616 399.216 437.871C413.018 464.17 439.17 486.141 467.638 494.998C439.478 495.209 411.24 494.53 383.066 494.508Q340.889 494.797 298.711 494.471C303.478 492.33 308.592 490.841 313.498 489.035Q317.141 487.721 320.658 486.102Q324.176 484.483 327.543 482.571Q330.911 480.659 334.103 478.467Q337.296 476.275 340.29 473.82C366.349 452.534 380.32 421.408 383.629 388.265Z"/>
	<path transform="matrix(1.97027 0 0 -1.97027 0 2017.56)" d="M561.999 529.761C575.059 529.529 588.17 529.94 601.238 529.941L727.631 529.985C699.08 536.654 677.702 552.041 660.796 575.718C648.719 593.726 644.152 610.481 639.507 631.153C636.706 612.595 629.358 590.938 619.272 575.271C603.525 550.811 578.974 536.464 550.984 530.396L561.999 529.761Z"/>
</svg>
